<mxfile host="Electron" modified="2023-10-28T03:45:26.114Z" agent="Mozilla/5.0 (X11; Linux x86_64) AppleWebKit/537.36 (KHTML, like Gecko) draw.io/22.0.3 Chrome/114.0.5735.289 Electron/25.8.4 Safari/537.36" etag="3sB0VdNVzkcUj4RTyyl0" version="22.0.3" type="device">
  <diagram name="第 1 页" id="w6VJuMpkSSHTkApIJ1Et">
    <mxGraphModel dx="1002" dy="1036" grid="1" gridSize="10" guides="1" tooltips="1" connect="1" arrows="1" fold="1" page="0" pageScale="1" pageWidth="827" pageHeight="1169" math="0" shadow="0">
      <root>
        <mxCell id="0" />
        <mxCell id="1" parent="0" />
        <mxCell id="DLIhu4qUrZcEG0pH_lNH-3" value="" style="edgeStyle=none;curved=1;rounded=0;orthogonalLoop=1;jettySize=auto;html=1;fontSize=12;startSize=8;endSize=8;fontFamily=var(--font-sans);" edge="1" parent="1" source="DLIhu4qUrZcEG0pH_lNH-1" target="DLIhu4qUrZcEG0pH_lNH-2">
          <mxGeometry relative="1" as="geometry" />
        </mxCell>
        <mxCell id="DLIhu4qUrZcEG0pH_lNH-32" value="1 丙酮酸" style="edgeLabel;html=1;align=center;verticalAlign=middle;resizable=0;points=[];fontSize=16;fontFamily=var(--font-sans);" vertex="1" connectable="0" parent="DLIhu4qUrZcEG0pH_lNH-3">
          <mxGeometry x="-0.196" relative="1" as="geometry">
            <mxPoint x="6" as="offset" />
          </mxGeometry>
        </mxCell>
        <mxCell id="DLIhu4qUrZcEG0pH_lNH-1" value="1/2 葡萄糖" style="text;html=1;align=center;verticalAlign=middle;resizable=0;points=[];autosize=1;strokeColor=#82b366;fillColor=#d5e8d4;fontSize=16;fontFamily=var(--font-sans);" vertex="1" parent="1">
          <mxGeometry x="30" y="78" width="100" height="30" as="geometry" />
        </mxCell>
        <mxCell id="DLIhu4qUrZcEG0pH_lNH-5" value="" style="edgeStyle=none;curved=1;rounded=0;orthogonalLoop=1;jettySize=auto;html=1;fontSize=12;startSize=8;endSize=8;fontFamily=var(--font-sans);" edge="1" parent="1" source="DLIhu4qUrZcEG0pH_lNH-2" target="DLIhu4qUrZcEG0pH_lNH-8">
          <mxGeometry relative="1" as="geometry">
            <mxPoint x="320" y="93" as="targetPoint" />
          </mxGeometry>
        </mxCell>
        <mxCell id="DLIhu4qUrZcEG0pH_lNH-7" value="进线粒体" style="edgeLabel;html=1;align=center;verticalAlign=middle;resizable=0;points=[];fontSize=14;fontFamily=var(--font-sans);" vertex="1" connectable="0" parent="DLIhu4qUrZcEG0pH_lNH-5">
          <mxGeometry x="-0.2404" y="1" relative="1" as="geometry">
            <mxPoint x="4" as="offset" />
          </mxGeometry>
        </mxCell>
        <mxCell id="DLIhu4qUrZcEG0pH_lNH-2" value="2 丙酮酸" style="text;html=1;align=center;verticalAlign=middle;resizable=0;points=[];autosize=1;strokeColor=#666666;fillColor=#f5f5f5;fontSize=16;fontColor=#333333;fontFamily=var(--font-sans);" vertex="1" parent="1">
          <mxGeometry x="240" y="78" width="80" height="30" as="geometry" />
        </mxCell>
        <mxCell id="DLIhu4qUrZcEG0pH_lNH-11" value="" style="edgeStyle=none;curved=1;rounded=0;orthogonalLoop=1;jettySize=auto;html=1;fontSize=12;startSize=8;endSize=8;fontFamily=var(--font-sans);" edge="1" parent="1" source="DLIhu4qUrZcEG0pH_lNH-8" target="DLIhu4qUrZcEG0pH_lNH-14">
          <mxGeometry relative="1" as="geometry">
            <mxPoint x="740" y="93" as="targetPoint" />
          </mxGeometry>
        </mxCell>
        <mxCell id="DLIhu4qUrZcEG0pH_lNH-12" value="&lt;font style=&quot;font-size: 14px;&quot;&gt;出线粒体&lt;/font&gt;" style="edgeLabel;html=1;align=center;verticalAlign=middle;resizable=0;points=[];fontSize=16;fontFamily=var(--font-sans);" vertex="1" connectable="0" parent="DLIhu4qUrZcEG0pH_lNH-11">
          <mxGeometry x="-0.2079" y="-1" relative="1" as="geometry">
            <mxPoint x="14" y="-1" as="offset" />
          </mxGeometry>
        </mxCell>
        <mxCell id="DLIhu4qUrZcEG0pH_lNH-8" value="草酰乙酸 + 乙酰 CoA" style="text;html=1;align=center;verticalAlign=middle;resizable=0;points=[];autosize=1;strokeColor=#666666;fillColor=#f5f5f5;fontSize=16;fontColor=#333333;fontFamily=var(--font-sans);" vertex="1" parent="1">
          <mxGeometry x="440" y="78" width="170" height="30" as="geometry" />
        </mxCell>
        <mxCell id="DLIhu4qUrZcEG0pH_lNH-13" value="柠檬酸" style="text;html=1;align=center;verticalAlign=middle;resizable=0;points=[];autosize=1;strokeColor=#666666;fillColor=#f5f5f5;fontSize=16;fontColor=#333333;fontFamily=var(--font-sans);" vertex="1" parent="1">
          <mxGeometry x="640" y="108" width="70" height="30" as="geometry" />
        </mxCell>
        <mxCell id="DLIhu4qUrZcEG0pH_lNH-17" style="edgeStyle=none;curved=1;rounded=0;orthogonalLoop=1;jettySize=auto;html=1;fontSize=12;startSize=8;endSize=8;fontFamily=var(--font-sans);" edge="1" parent="1" source="DLIhu4qUrZcEG0pH_lNH-14" target="DLIhu4qUrZcEG0pH_lNH-16">
          <mxGeometry relative="1" as="geometry" />
        </mxCell>
        <mxCell id="DLIhu4qUrZcEG0pH_lNH-18" style="edgeStyle=none;curved=1;rounded=0;orthogonalLoop=1;jettySize=auto;html=1;fontSize=12;startSize=8;endSize=8;fontFamily=var(--font-sans);" edge="1" parent="1" source="DLIhu4qUrZcEG0pH_lNH-14" target="DLIhu4qUrZcEG0pH_lNH-15">
          <mxGeometry relative="1" as="geometry" />
        </mxCell>
        <mxCell id="DLIhu4qUrZcEG0pH_lNH-14" value="" style="shape=waypoint;sketch=0;fillStyle=solid;size=6;pointerEvents=1;points=[];fillColor=none;resizable=0;rotatable=0;perimeter=centerPerimeter;snapToPoint=1;fontSize=16;fontFamily=var(--font-sans);" vertex="1" parent="1">
          <mxGeometry x="730" y="83" width="20" height="20" as="geometry" />
        </mxCell>
        <mxCell id="DLIhu4qUrZcEG0pH_lNH-19" style="edgeStyle=none;curved=1;rounded=0;orthogonalLoop=1;jettySize=auto;html=1;fontSize=12;startSize=8;endSize=8;fontFamily=var(--font-sans);" edge="1" parent="1" source="DLIhu4qUrZcEG0pH_lNH-15" target="DLIhu4qUrZcEG0pH_lNH-20">
          <mxGeometry relative="1" as="geometry">
            <mxPoint x="610" y="-5" as="targetPoint" />
          </mxGeometry>
        </mxCell>
        <mxCell id="DLIhu4qUrZcEG0pH_lNH-15" value="草酰乙酸" style="text;html=1;align=center;verticalAlign=middle;resizable=0;points=[];autosize=1;strokeColor=#666666;fillColor=#f5f5f5;fontSize=16;fontColor=#333333;fontFamily=var(--font-sans);" vertex="1" parent="1">
          <mxGeometry x="695" y="-20" width="90" height="30" as="geometry" />
        </mxCell>
        <mxCell id="DLIhu4qUrZcEG0pH_lNH-16" value="乙酰 CoA" style="text;html=1;align=center;verticalAlign=middle;resizable=0;points=[];autosize=1;strokeColor=#82b366;fillColor=#d5e8d4;fontSize=16;fontFamily=var(--font-sans);" vertex="1" parent="1">
          <mxGeometry x="810" y="78" width="90" height="30" as="geometry" />
        </mxCell>
        <mxCell id="DLIhu4qUrZcEG0pH_lNH-23" style="edgeStyle=orthogonalEdgeStyle;rounded=0;orthogonalLoop=1;jettySize=auto;html=1;fontSize=12;startSize=8;endSize=8;fontFamily=var(--font-sans);" edge="1" parent="1" source="DLIhu4qUrZcEG0pH_lNH-20" target="DLIhu4qUrZcEG0pH_lNH-2">
          <mxGeometry relative="1" as="geometry" />
        </mxCell>
        <mxCell id="DLIhu4qUrZcEG0pH_lNH-31" value="1 丙酮酸" style="edgeLabel;html=1;align=center;verticalAlign=middle;resizable=0;points=[];fontSize=16;fontFamily=var(--font-sans);" vertex="1" connectable="0" parent="DLIhu4qUrZcEG0pH_lNH-23">
          <mxGeometry x="0.6075" y="-1" relative="1" as="geometry">
            <mxPoint x="1" y="9" as="offset" />
          </mxGeometry>
        </mxCell>
        <mxCell id="DLIhu4qUrZcEG0pH_lNH-26" style="edgeStyle=none;curved=1;rounded=0;orthogonalLoop=1;jettySize=auto;html=1;fontSize=12;startSize=8;endSize=8;fontFamily=var(--font-sans);" edge="1" parent="1" source="DLIhu4qUrZcEG0pH_lNH-20" target="DLIhu4qUrZcEG0pH_lNH-27">
          <mxGeometry relative="1" as="geometry">
            <mxPoint x="240" y="-5" as="targetPoint" />
          </mxGeometry>
        </mxCell>
        <mxCell id="DLIhu4qUrZcEG0pH_lNH-29" style="edgeStyle=orthogonalEdgeStyle;rounded=0;orthogonalLoop=1;jettySize=auto;html=1;fontSize=12;startSize=8;endSize=8;fontFamily=var(--font-sans);" edge="1" parent="1" source="DLIhu4qUrZcEG0pH_lNH-20" target="DLIhu4qUrZcEG0pH_lNH-30">
          <mxGeometry relative="1" as="geometry">
            <mxPoint x="260.0000000000002" y="-80" as="targetPoint" />
            <Array as="points">
              <mxPoint x="280" y="-5" />
              <mxPoint x="280" y="-80" />
              <mxPoint x="270" y="-80" />
            </Array>
          </mxGeometry>
        </mxCell>
        <mxCell id="DLIhu4qUrZcEG0pH_lNH-20" value="L-苹果酸" style="text;html=1;align=center;verticalAlign=middle;resizable=0;points=[];autosize=1;strokeColor=#666666;fillColor=#f5f5f5;fontSize=16;fontColor=#333333;fontFamily=var(--font-sans);" vertex="1" parent="1">
          <mxGeometry x="440" y="-20" width="90" height="30" as="geometry" />
        </mxCell>
        <mxCell id="DLIhu4qUrZcEG0pH_lNH-24" value="&lt;b&gt;苹果酸酶&lt;/b&gt;" style="text;html=1;align=center;verticalAlign=middle;resizable=0;points=[];autosize=1;strokeColor=#d79b00;fillColor=#ffe6cc;fontSize=16;rounded=1;fontFamily=var(--font-sans);" vertex="1" parent="1">
          <mxGeometry x="310" y="-40" width="90" height="30" as="geometry" />
        </mxCell>
        <mxCell id="DLIhu4qUrZcEG0pH_lNH-27" value="CO&lt;sub&gt;2&lt;/sub&gt;" style="text;html=1;align=center;verticalAlign=middle;resizable=0;points=[];autosize=1;strokeColor=#82b366;fillColor=#d5e8d4;fontSize=16;fontStyle=2;fontFamily=var(--font-sans);" vertex="1" parent="1">
          <mxGeometry x="180" y="-25" width="50" height="40" as="geometry" />
        </mxCell>
        <mxCell id="DLIhu4qUrZcEG0pH_lNH-30" value="NADPH" style="text;html=1;align=center;verticalAlign=middle;resizable=0;points=[];autosize=1;strokeColor=#82b366;fillColor=#d5e8d4;fontSize=16;fontFamily=var(--font-sans);" vertex="1" parent="1">
          <mxGeometry x="240" y="-90" width="80" height="30" as="geometry" />
        </mxCell>
        <mxCell id="DLIhu4qUrZcEG0pH_lNH-33" value="苹果酸脱氢酶" style="text;html=1;align=center;verticalAlign=middle;resizable=0;points=[];autosize=1;strokeColor=#d79b00;fillColor=#ffe6cc;fontSize=16;rounded=1;fontFamily=var(--font-sans);" vertex="1" parent="1">
          <mxGeometry x="555" y="-40" width="120" height="30" as="geometry" />
        </mxCell>
      </root>
    </mxGraphModel>
  </diagram>
</mxfile>
